<svg id="fi_8331145" enable-background="new 0 0 36 36" height="512" viewBox="0 0 36 36" width="512" xmlns="http://www.w3.org/2000/svg"><g id="_x37_3"><g><g><g><g><path d="m6.6245494 24.9596901c-.261107-.282135.0491462-.6065502.4171386-.5228882.100728.1656742.1300621.295948.0953379.3828697.595439.1426659 1.058567.1055241 1.3575439.0374012.1229467-.0211926.1385498-.1846294.0200558-.2332954-.7175384-.2687111-1.6281281-1.0243073-1.910078-1.7548218-.1557093-.3491325.0725517-.6004887.355967-.5053196 0 0 .7195182.6410732 1.434258.6853104 3.3473253.1770706 4.3797102-3.6052628 4.3797102-3.6052628 1.5873928.4838905 2.9811153.9660339 2.7706957 2.9359589-2.5796481 4.646328-6.9446374 4.5875645-8.9206291 2.5800476z" fill="#dba660"></path></g></g><g><g><path d="m15.1834488 22.0589333c-2.4899902 4.3800049-6.1599731 4.4899902-8.2700195 2.6300049-.0599976-.0500488-.0700073-.1199951-.0299683-.1800537.0199585-.0499268.0799561-.0899658.1499634-.0699463.8000488.1899414 1.3900151.1199951 1.7400517.0100098.1199951-.0300293.1199951-.1900635 0-.2299805-.7400517-.2199708-1.6900034-.9000245-2.04004-1.6101075-.0700073-.1499023.0900269-.3099365.2299805-.2399902.3300171.130127.8600464.3000488 1.5800176.2800293 1.6199951-.0300293 2.6400146-.9499512 3.25-1.8999023.0800171-.1201172.1600342-.2401123.2200317-.3601074.4699707-.8599854.6199951-1.6398926.6199951-1.6398926 1.6199951.3598632 2.6199951 1.3398437 2.5499878 3.3099365z" fill="#aa6256"></path></g></g><g><g><path d="m15.1834488 22.0589333c-2.4899902 4.3800049-6.1599731 4.4899902-8.2700195 2.6300049-.0599976-.0500488-.0700073-.1199951-.0299683-.1800537.8599854.3900146 1.7799687.6199951 2.7199712.5899658 1.5200195-.039917 3.0700073-.8199463 3.7600098-2.1699219.1699829-.3200684.1799927-.5300293.0700073-.8800049-.1699829-.5-.539978-.8099365-1.0700073-1.0599365-.0999756-.0400391-.3499756-.1401367-.5700073-.2399902.0800171-.1201172.1600342-.2401123.2200317-.3601074.4699707-.8599854.6199951-1.6398926.6199951-1.6398926 1.6199946.3598632 2.6199946 1.3398437 2.5499873 3.3099365z" fill="#8a4852"></path></g></g></g><g><g><g><path d="m18.594923 10.8056488-6.1900034 6.9200439-1.5800171 1.7600098c-.1599731-.0100098-.3099976-.0200195-.4599609-.0100098h-.1100464c-2.4599605-.0499268-3.9499507.6400146-6.0699458.0599365-.4300537-.119873-.8400269-.3798828-1.0800171-.789917-.5800171-1.0100098-.9100342-2.1700439-1.0300293-3.4400635-.1501487-1.4272146-.0322545-2.5994654.0599976-3.5699463.0200195-.1400146.1000366-.2600098.2200317-.3499756.3499756-.25.6400146-.5100098.789978-.8100586.1799927-.3399658-.3399658-1.0600586-.3699951-1.6899414-.0100097-.2700194.0700073-.5600585.2299805-.7800292.6000366-.8800044 1.2800293-1.6099848 2.1100464-2.0900874.0899658-.0599365.2000122-.0699463.2999878-.039917.3300171.0899658 1.1199951.4000244 1.1799926.0999756.1823688-.6512494.2620897-1.2667985.9500122-1.6300049 2.7199702-1.4899902 5.7099605-.7099609 7.0999751-.2299805.5300293.1900635.960022.5599365 1.2300415 1.039917 1.0699472 1.960083 1.2999887 3.4801021 2.1499643 4.8000484.0200195.0300293.0300293.0500488.0599976.0800781.1400147.2299805.3099976.459961.5100098.6699219z" fill="#c9cee2"></path></g></g><g><g><path d="m8.3938408 17.8149681c1.3342047-.0848236 2.6998262-.251318 4.0088835-.0878735l-1.5802031 1.7608509c-2.8051558-.1761093-4.3609705.6677132-6.633347.0515518-.434567-.1202126-.8486629-.3849945-1.0796027-.7904568-.584553-1.0105591-.9129612-2.1686459-1.0315495-3.4455624.2977517.6891031.8202791 1.3122234 1.4637837 1.7122021 1.4221626.8754197 3.1909337.9108106 4.8520351.7992879z" fill="#b0b8cf"></path></g></g><g><g><path d="m18.594923 10.8056488-6.1900034 6.9200439-1.5800171 1.7600098c-.1599731-.0100098-.3099976-.0200195-.4599609-.0100098-.0400391-.1500244-.0800171-.3199463-.1000366-.5200195-.1399536-1.2199707.4400024-3.3800049 2.460022-5.7999268 1.7700195-2.130127 4.000001-3.130127 5.3599863-3.0200195.1400146.2299805.3099975.459961.5100097.6699219z" fill="#9ea9c9"></path></g></g><g><g><path d="m19.2360077 10.6097031c-.0874577-.0879211-.2106934-.1368618-.3343849-.1844425-1.2549038-.4827156-3.8586521.4903135-5.876523 2.9059944-2.0201483 2.4184456-2.5955458 4.5831337-2.4606867 5.8037491.0747051.6671124.3291025 1.0394287.5684052 1.1725693.2182322.121418.3168983.1204052.9892225.1389923s1.6166468 1.1639366 1.6166468 1.1639366l.3582468.025341s-1.4940014-1.8157635 1.0505428-5.1301708 4.0969915-3.9624205 4.0969915-3.9624205l2.2295818-.7218428c-1.0150738-.2550821-1.8669357-.8386307-2.2380428-1.2117061z" fill="#aa6256"></path></g></g><g><g><path d="m14.0444651 21.8568935-.1396303-.0913334c-.217618-.1662388-.4937-.5054569-.5684052-1.1725693-.13486-1.2206154.4405375-3.3853035 2.4606857-5.8037491 2.0178719-2.4156799 4.6216202-3.38871 5.8765221-2.9059944.1236935.0475807.2360001.1089859.3344002.1844597.199564.1532249.3212967.3699608.3514557.6291456.0969009.817647-.7754459 1.9590902-2.2223854 3.7424097-1.0458584 1.2914257-4.4546032 6.0477257-6.0144091 5.4477253z" fill="#dba660"></path></g></g><g><g><path d="m25.0800972 18.2415447c-2.373148 2.2063217-5.1389999 2.9950714-5.1141739 8.3870106.010828 5.3980064 3.6874161 3.4000626 3.6874161 3.4000626l-.9885616 1.7772999s-4.0567932-1.2203999-5.621748-6.2666245c-.887764-2.8743706-2.7798252-4.2352924-2.7798252-4.2352924-.4620075-.3536377-.5303259-1.5173168.0732222-3.055809.3678007-.9256363.9775743-1.9926586 1.9040213-3.0903158 2.1248398-2.5363016 4.6769733-3.1962719 5.4100552-2.6328659 0 0 2.280262.90061 5.5073833.863718 1.2233639-.0100832 2.4263458.2767401 3.4312916.6515694 1.6500607.5879116 2.8090382 1.3854275 2.8090382 1.3854275l-.153244.398387c-.0000002-.0000002-5.8020613.207279-8.1648752 2.4174326z" fill="#c9cee2"></path></g></g><g><g><path d="m33.3949089 15.425766-.1499634.3999023s-5.8000469.2099609-8.1600323 2.4200439c-2.3800049 2.1999512-5.1400146 2.9899902-5.1199951 8.3800049.0100098 5.3999023 3.6900024 3.3999023 3.6900024 3.3999023l-.9899902 1.7800293s-4.0599976-1.2199707-5.6199951-6.2700195c-.8900146-2.869873-2.7800303-4.2299805-2.7800303-4.2299805-.0100098-.0100098-.0100098-.0100098-.0199585-.0200195-.0500488-.039917-.0900269-.0899658-.1300049-.1499023-.0300293-.0400391-.0499878-.0900879-.0700073-.1400146-.0200195-.0400391-.0400391-.0799561-.0499878-.1199951-.1799927-.5500488-.1000366-1.4799805.3399658-2.6300049.1799927.0699463.3599854.1500244.5300293.2399902 1.4897642.6836166 3.495183 1.8757362 5.3499765 1.1700439 1.1500244-.4500732 1.9000244-1.5500488 2.7600098-2.4500732 1.9500122-2.0499268 4.789978-3.2099609 7.6099854-3.1700439 1.6500226.5900879 2.8099957 1.3901367 2.8099957 1.3901367z" fill="#b0b8cf"></path></g></g><g><g><path d="m21.7548962 12.5656586c-1.3799438.0500488-3.3999634 1.0600586-5.039978 3.0300293-1.9600229 2.3499756-2.5599985 4.4499512-2.4699717 5.6899414-.4400024-.369873-.5-1.5200195.0899658-3.039917.3699951-.9200439.9800415-1.9901123 1.9100351-3.0899658 2.1199951-2.5300293 4.6699829-3.1900635 5.4099731-2.630127.0000001 0 .0300294.0100098.0999757.0400391z" fill="#b0b8cf"></path></g></g><g><g><path d="m14.8649416 18.4857025c-.5 1.1400146-.6700439 2.0999756-.6199951 2.7999268-.0500488-.039917-.0900269-.0899658-.1300049-.1499023-.0300293-.0400391-.0499878-.0900879-.0700073-.1400146-.0200195-.0400391-.0400391-.0799561-.0499878-.1199951-.1799927-.5500488-.1000366-1.4799805.3399658-2.6300049.1799927.0699462.3599854.1500243.5300293.2399901z" fill="#9ea9c9"></path></g></g><g><g><path d="m31.6723633 19.1709232s2.8883171 2.2892151 1.897213 5.7327785c-.9911079 3.4435635-3.2367439 6.2236309-5.5694618 6.8701267-2.3327179.6464977-5.9633045.025404-6.7074909-1.161396-.7441883-1.1868-2.2322979-3.6740284-.7740784-7.0267811s7.3874283-6.2637634 8.5188656-5.9536152 2.6349525 1.5388871 2.6349525 1.5388871z" fill="#b0b8cf"></path></g></g><g><g><path d="m27.5901871 24.1677494-2.5148773-.8928967-.5671291-.2057152.3032017-.6912003s.2423038.0807667.5887375.2140274c.896059.3198013 2.5065918.9144363 2.678936 1.0802498.2465152.2315122-.4888688.495535-.4888688.495535z" fill="#e3e7f0"></path></g></g><g><g><g><g><path d="m25.4001198 22.5919647c-.0591888.0891895-.1116581.1932545-.1640625.2973423-.0608063.1257362-.1216125.2514725-.1607475.3855457l-.5671291-.2057152.3032017-.6912003c-.0000001.0000001.2423037.0807668.5887374.2140275z" fill="#c9cee2"></path></g></g></g></g><g><g><path d="m19.9604263 26.6322021s1.8977699 3.2710991 4.0573635 3.1936531l-.379179-.5734577s-1.0588627.0376987-1.6238689-1.5459957c-.6734123-1.8875484.7934933-6.2456436 2.5078297-7.3967648 1.7333565-1.1638908 5.9377861-2.5769444 7.5297318-.7928333l.7576904.289463c-.6293793-.8991108-1.7989407-1.9716244-4.2246189-3.0966015-4.3969346.6657048-8.784668 5.2709218-8.6249486 9.9225369z" fill="#c9cee2"></path></g></g><g><g><g><g><path d="m29.3149548 17.0656586c-1.4400024.4399414-3.1100464 1.1600342-4.8200073 2.3300781-2.9800415 2.0200195-4.1300049 5.3999023-3.9700317 7.8798828.0100098.0800781.0100098.1600342.0300293.2399902-.3699951-.5-.5900269-.8798828-.5900269-.8798828-.1032448-3.0526485 1.8169537-6.2182274 4.1400146-7.8200684 1.2600098-.8599854 2.4899902-1.4799805 3.6300049-1.9299316.0199585-.0100098.0299683-.0200195.039978-.0100098.2700195-.0700684.5400391-.1300049.8099976-.1700439.2600097.1199951.5.2399903.7300415.3599854z" fill="#9ea9c9"></path></g></g></g></g><g><g><g><g><path d="m33.35746 16.1209087c-.0366135-.0016422-4.431139-.1759148-9.1297588 3.0250988-2.9780674 2.0234203-4.1307678 5.4076977-3.9643326 7.8827744.1389503 1.8679981.9875164 3.3127842 2.3340492 3.9798737 1.2708092.6379604 3.5125885 1.0777931 5.6669559.2909889 1.8562927-.6904392 3.2803974-2.1310406 4.1973457-4.2885952 1.4608612-3.377697.752346-5.4772263-.0945969-6.6355743-.7943821-1.1009617-2.2233925-1.6506519-3.7199059-1.4433537-5.7741089.8032417-7.5044403 7.4798527-5.9206066 9.4791203.5671272.6904144 1.3782539.7786598 1.7629395.7154598 3.2136784-.5037231 5.2365932-1.7886238 6.015276-3.8129158 1.1327744-2.9448032-1.8450089-5.3099136-4.2277489-4.1615658-.5563126.2829933-1.0276775.7977009-1.4091244 1.5954914-.8303699 1.7063084-.9411945 3.5774441-.2408752 4.2446022.7863827.7594795 3.1300373-.3041191 3.3186893-1.681221.0674553-.4338703-.0607338-.8436337-.3555794-1.143343-.1486397-.146986.340229-.6425209.4888687-.4955349.4496861.4463501.6520214 1.0833683.5637016 1.7329807-.2707157 1.887579-3.2494411 3.3040695-4.4937134 2.0868206-.935997-.8945026-.9017696-3.0188656.090229-5.0483341.4613113-.9409237 1.0259914-1.5688629 1.7280502-1.9077511 1.7613029-.8635139 3.9872665-.1563931 4.9757118 1.6032848.6086922 1.0668526.6777687 2.2117977.2113113 3.4244175-.8703384 2.2625618-3.0764141 3.7006187-6.556591 4.2509575-.7136879.1107998-1.7337875-.1450596-2.4124603-.9653072-1.889204-2.372776-.1633205-9.6709652 6.3687229-10.6117191 3.7689037-.5330849 7.0995731 3.139864 4.5447674 9.0557098-.9860764 2.3051205-2.5759563 3.9181595-4.5995655 4.6558952-2.072794.7685738-4.178854.4927559-5.6403084-.0694141-.2056923-.0791225-.4005489-.1540775-.5654621-.2423935-4.1051445-2.0287361-3.5759773-9.5803299 1.5454235-13.0635738 4.8992863-3.3349991 9.3671017-3.1574144 9.5611248-3.1449795.2030757.012578.3141826.7057285-.0425374.6921005z" fill="#e3e7f0"></path></g></g></g></g></g></g><g opacity=".9"><g><path d="m10.4707241 5.4576883c-1.385541.1206332-2.4330482.4825669-2.5083485-.0621023-.0745072-.5389299.9932814-1.0970354 2.3788224-1.2176685 1.3854952-.1206293 2.412775.3347945 2.4872828.8737249.0753001.5446687-.9722615.2854166-2.3577567.4060459z" fill="#fff"></path></g></g><g opacity=".9"><g><path d="m14.7729712 5.2094307c-.0810947.2770028-.459507.4091649-.8410788.3018713-.3815718-.1072941-.6247635-.4142442-.5436697-.691247.0794277-.2713103.4516897-.4052396.8332615-.2979455.3815718.1072936.6309147.4160104.551487.6873212z" fill="#fff"></path></g></g><g><g><path d="m8.6119432 12.2912054c-.0978136.0213947-.1764269-.0804853-.1296949-.1674643.241024-.4486027.4304953-.8217402.3998308-.8393717-.0278816-.0160437-.2644911.3285913-.5427704.7541189-.0540113.0825911-.1823959.0650978-.2115726-.029191-.2973628-.960969-.5846806-1.8329744-.6461-1.8172493-.059052.0151196.130034.9140415.3565717 1.8931551.0222597.0962095-.0809569.1729116-.169724.1265621-.4552999-.2377357-.8354926-.425539-.8532586-.3955135-.0161686.0273075.3358574.2616005.7704268.5372829.0843401.053504.0672259.1795464-.0285811.2077208-.9746394.2866144-1.8625464.5648003-1.8462162.6252356.0156975.0580912.9315014-.1234436 1.9249706-.3403978.0978084-.0213594.1764064.0804758.1296897.167448-.2396069.4460707-.4291415.8184004-.4012904.8344154.0306201.0176172.2682314-.3279047.5430722-.7522001.0537667-.083005.1825099-.0657473.2117896.0287409.2971163.9588041.5872488 1.8334093.6462784 1.8182955.0614071-.0157223-.1302996-.9164362-.356739-1.8939152-.0222626-.0961018.0807562-.1728115.1695261-.1266899.4574661.2376842.8381252.4262457.8542891.3989267.0177536-.0299845-.3350582-.265193-.7698793-.537015-.0850029-.0531378-.0682592-.1797771.0278807-.2080832.9743128-.2868633 1.8646202-.5677347 1.8489304-.6257973-.0163254-.0604161-.9337372.1236345-1.9274296.3409864z" fill="#fff"></path></g></g></g></svg>
